<svg width="31" height="31" viewBox="0 0 31 31" fill="none" xmlns="http://www.w3.org/2000/svg">
<path d="M15.6291 23.9604L15.4999 24.0896L15.3578 23.9604C9.22242 18.3933 5.16659 14.7121 5.16659 10.9792C5.16659 8.39583 7.10409 6.45833 9.68742 6.45833C11.6766 6.45833 13.6141 7.75 14.2987 9.50667H16.7012C17.3858 7.75 19.3233 6.45833 21.3124 6.45833C23.8958 6.45833 25.8333 8.39583 25.8333 10.9792C25.8333 14.7121 21.7774 18.3933 15.6291 23.9604ZM21.3124 3.875C19.0649 3.875 16.9078 4.92125 15.4999 6.56167C14.092 4.92125 11.9349 3.875 9.68742 3.875C5.70909 3.875 2.58325 6.98792 2.58325 10.9792C2.58325 15.8487 6.97492 19.84 13.627 25.8721L15.4999 27.5771L17.3728 25.8721C24.0249 19.84 28.4166 15.8487 28.4166 10.9792C28.4166 6.98792 25.2908 3.875 21.3124 3.875Z" fill="#7154D2"/>
</svg>
