<svg width="21" height="21" viewBox="0 0 21 21" fill="none" xmlns="http://www.w3.org/2000/svg">
<path d="M1.10833 5.73958C1.97539 4.0141 3.30502 2.5636 4.94875 1.55007C6.59248 0.536534 8.48558 -0.000131757 10.4167 2.4264e-08C13.224 2.4264e-08 15.5823 1.03229 17.3854 2.71354L14.399 5.70104C13.3188 4.66875 11.9458 4.14271 10.4167 4.14271C7.70313 4.14271 5.40625 5.97604 4.58854 8.4375C4.38021 9.0625 4.26146 9.72917 4.26146 10.4167C4.26146 11.1042 4.38021 11.7708 4.58854 12.3958C5.40729 14.8583 7.70313 16.6906 10.4167 16.6906C11.8177 16.6906 13.0104 16.3208 13.9438 15.6958C14.4848 15.3396 14.9481 14.8773 15.3054 14.337C15.6628 13.7966 15.9069 13.1894 16.0229 12.5521H10.4167V8.52292H20.2271C20.35 9.20417 20.4167 9.91458 20.4167 10.6531C20.4167 13.826 19.2813 16.4969 17.3104 18.3094C15.5875 19.901 13.2292 20.8333 10.4167 20.8333C9.04858 20.8339 7.69379 20.5648 6.42973 20.0415C5.16568 19.5182 4.01714 18.751 3.04975 17.7836C2.08236 16.8162 1.3151 15.6677 0.791807 14.4036C0.268515 13.1395 -0.000546731 11.7848 8.34078e-07 10.4167C8.34078e-07 8.73542 0.402084 7.14583 1.10833 5.73958Z" fill="black"/>
</svg>
