<svg width="32" height="32" viewBox="0 0 32 32" fill="none" xmlns="http://www.w3.org/2000/svg">
<path d="M7.99992 25.3334H11.9999V18.6667C11.9999 18.2889 12.1279 17.9725 12.3839 17.7174C12.6399 17.4622 12.9564 17.3342 13.3333 17.3334H18.6666C19.0444 17.3334 19.3613 17.4614 19.6173 17.7174C19.8733 17.9734 20.0008 18.2898 19.9999 18.6667V25.3334H23.9999V13.3334L15.9999 7.33335L7.99992 13.3334V25.3334ZM5.33325 25.3334V13.3334C5.33325 12.9111 5.42792 12.5111 5.61725 12.1334C5.80659 11.7556 6.06747 11.4445 6.39992 11.2L14.3999 5.20002C14.8666 4.84446 15.3999 4.66669 15.9999 4.66669C16.5999 4.66669 17.1333 4.84446 17.5999 5.20002L25.5999 11.2C25.9333 11.4445 26.1946 11.7556 26.3839 12.1334C26.5733 12.5111 26.6675 12.9111 26.6666 13.3334V25.3334C26.6666 26.0667 26.4053 26.6947 25.8826 27.2174C25.3599 27.74 24.7324 28.0009 23.9999 28H18.6666C18.2888 28 17.9724 27.872 17.7173 27.616C17.4621 27.36 17.3341 27.0436 17.3333 26.6667V20H14.6666V26.6667C14.6666 27.0445 14.5386 27.3614 14.2826 27.6174C14.0266 27.8734 13.7101 28.0009 13.3333 28H7.99992C7.26659 28 6.63903 27.7391 6.11725 27.2174C5.59547 26.6956 5.33414 26.0676 5.33325 25.3334Z" fill="#131313"/>
</svg>
