<svg width="29" height="31" viewBox="0 0 29 31" fill="none" xmlns="http://www.w3.org/2000/svg">
<path d="M12.7054 30.75C12.3079 30.75 11.9634 30.6196 11.6719 30.3588C11.3792 30.098 11.1975 29.7728 11.1269 29.3833L10.6776 25.8095C10.1321 25.6444 9.54215 25.3858 8.90779 25.0339C8.27457 24.6809 7.7353 24.3028 7.29 23.8996L4.01854 25.3073C3.65751 25.4667 3.29079 25.4838 2.91837 25.3585C2.54596 25.2332 2.25896 24.9969 2.05737 24.6496L0.214082 21.4738C0.0124983 21.1264 -0.0467241 20.7631 0.0364148 20.3838C0.119554 20.0046 0.31772 19.6937 0.630915 19.4511L3.48725 17.3157C3.436 17.0059 3.39443 16.6876 3.36254 16.3607C3.32837 16.0327 3.31129 15.7144 3.31129 15.4058C3.31129 15.1188 3.32837 14.817 3.36254 14.5003C3.39443 14.1837 3.436 13.8273 3.48725 13.4309L0.630915 11.2955C0.31772 11.0529 0.125248 10.7369 0.0534981 10.3474C-0.0182519 9.95788 0.0460956 9.58888 0.24654 9.24038L2.05737 6.16538C2.25896 5.83852 2.54596 5.60733 2.91837 5.4718C3.29079 5.33627 3.65751 5.34823 4.01854 5.50767L7.25754 6.88117C7.76776 6.45637 8.32012 6.07313 8.91462 5.73147C9.50685 5.3898 10.0837 5.12558 10.6452 4.9388L11.1286 1.36497C11.1981 0.975466 11.3792 0.650313 11.6719 0.389507C11.9646 0.128702 12.3091 -0.00113146 12.7054 7.42754e-06H16.2587C16.6562 7.42754e-06 17.0007 0.13041 17.2923 0.391216C17.585 0.652021 17.7666 0.977174 17.8372 1.36667L18.2865 4.97467C18.9414 5.20473 19.52 5.46838 20.0222 5.76563C20.5245 6.06288 21.0421 6.4353 21.5751 6.88288L24.9781 5.50938C25.3402 5.34994 25.7075 5.33798 26.08 5.47351C26.4524 5.60903 26.7388 5.84023 26.9392 6.16709L28.7501 9.27455C28.9517 9.62305 29.0109 9.98635 28.9277 10.3645C28.8446 10.7426 28.6464 11.0541 28.3332 11.2989L25.3471 13.53C25.4405 13.8831 25.4929 14.2071 25.5042 14.502C25.5156 14.797 25.5213 15.0874 25.5213 15.3733C25.5213 15.6387 25.5099 15.9183 25.4872 16.2121C25.4655 16.5071 25.4154 16.8635 25.3368 17.2815L28.2239 19.4511C28.5371 19.6937 28.741 20.0046 28.8355 20.3838C28.93 20.7631 28.8765 21.1264 28.6749 21.4738L26.8538 24.6154C26.6534 24.9639 26.3613 25.2002 25.9775 25.3243C25.5937 25.4496 25.2212 25.4325 24.8602 25.2731L21.5751 23.8654C21.0432 24.313 20.5079 24.6962 19.9692 25.0151C19.4306 25.334 18.8697 25.5874 18.2865 25.7753L17.8355 29.3816C17.7661 29.7711 17.585 30.0963 17.2923 30.3571C16.9996 30.6179 16.6551 30.7489 16.2587 30.75H12.7054ZM12.7737 29.0417H16.1152L16.7456 24.4155C17.6066 24.1877 18.3811 23.8751 19.069 23.4776C19.7591 23.0802 20.4607 22.5358 21.1736 21.8445L25.4359 23.6604L27.134 20.7563L23.3945 17.9478C23.5368 17.4615 23.6313 17.0139 23.678 16.605C23.7236 16.1973 23.7464 15.7873 23.7464 15.375C23.7464 14.9422 23.7236 14.5322 23.678 14.145C23.6325 13.7578 23.538 13.3324 23.3945 12.8689L27.1989 9.99376L25.5008 7.08959L21.1412 8.91751C20.6241 8.3492 19.9448 7.81677 19.1031 7.32022C18.2603 6.8248 17.4631 6.49623 16.7115 6.33451L16.1904 1.70834H12.784L12.251 6.30205C11.39 6.48541 10.5985 6.78152 9.87641 7.19038C9.1555 7.5981 8.438 8.15901 7.72391 8.87309L3.46333 7.08959L1.76525 9.99376L5.47062 12.7613C5.32826 13.1439 5.22861 13.5596 5.17167 14.0083C5.11472 14.4571 5.08625 14.924 5.08625 15.4092C5.08625 15.842 5.11472 16.2719 5.17167 16.699C5.22861 17.126 5.31744 17.5417 5.43816 17.946L1.76525 20.7563L3.46333 23.6604L7.69146 21.8667C8.36226 22.5432 9.05812 23.0859 9.77904 23.4947C10.5011 23.9036 11.3143 24.2219 12.2185 24.4497L12.7737 29.0417ZM14.436 19.6458C15.6272 19.6458 16.6369 19.2319 17.4648 18.4039C18.2928 17.5759 18.7068 16.5663 18.7068 15.375C18.7068 14.1837 18.2928 13.1741 17.4648 12.3461C16.6369 11.5182 15.6272 11.1042 14.436 11.1042C13.2378 11.1042 12.2265 11.5182 11.402 12.3461C10.5774 13.1741 10.1651 14.1837 10.1651 15.375C10.1651 16.5663 10.5774 17.5759 11.402 18.4039C12.2265 19.2319 13.2378 19.6458 14.436 19.6458Z" fill="#7154D2"/>
</svg>
